<svg xmlns="http://www.w3.org/2000/svg" width="127" height="25" viewBox="0 0 127 25" fill="none">
  <path d="M28.6455 5.81689H35.1666C39.8857 5.81689 41.0811 8.59076 41.0811 10.8516C41.0811 13.1124 39.859 15.8863 35.1666 15.8863H31.1433V23.8166H28.6455V5.81689ZM31.1433 13.7472H34.4351C36.4155 13.7472 38.396 13.295 38.396 10.8516C38.396 8.40816 36.4155 7.95599 34.4351 7.95599H31.1433V13.7472Z" fill="black"/>
  <path d="M44.3466 5.73022C45.2892 5.73083 46.0561 6.47017 46.067 7.38892C46.078 8.30768 45.329 9.06424 44.3867 9.08626C43.4444 9.10827 42.659 8.38756 42.6249 7.46935C42.6104 7.01448 42.7851 6.57321 43.1093 6.24574C43.4335 5.91826 43.8797 5.73235 44.3466 5.73022ZM43.1958 11.765H45.5152V23.8171H43.1958V11.765Z" fill="black"/>
  <path d="M48.1992 11.7652H50.5454V13.626H50.5989C51.4169 12.2038 52.9971 11.3627 54.6668 11.4609C57.0665 11.4609 59.1272 12.8608 59.1272 16.0607V23.817H56.8078V16.7042C56.8078 14.4347 55.4786 13.5999 53.9888 13.5999C52.0352 13.5999 50.5454 14.8173 50.5454 17.6172V23.817H48.1992V11.7652Z" fill="black"/>
  <path d="M63.4278 18.6345C63.4278 20.739 65.435 22.113 67.6028 22.113C68.9626 22.0744 70.222 21.4057 70.9927 20.3129L72.7768 21.6347C71.4813 23.3005 69.4231 24.2321 67.2816 24.1218C63.3654 24.1218 60.9211 21.3825 60.9211 17.791C60.8519 16.115 61.4953 14.4854 62.6993 13.2871C63.9033 12.0887 65.5612 11.4277 67.2816 11.4603C71.635 11.4603 73.3032 14.7126 73.3032 17.8171V18.6345H63.4278ZM70.85 16.7997C70.7964 14.7909 69.6456 13.3212 67.2816 13.3212C65.2599 13.3078 63.5779 14.833 63.4457 16.7997H70.85Z" fill="black"/>
  <path d="M83.9555 14.9743C83.1918 14.0942 82.0602 13.5986 80.8779 13.6265C78.3265 13.6265 77.0151 15.6352 77.0151 17.896C76.9509 18.9654 77.3443 20.0129 78.1017 20.789C78.8591 21.5652 79.9127 22.0006 81.0117 21.9916C82.1732 22.0295 83.2848 21.5297 84.0091 20.6438L85.6773 22.2524C84.4634 23.5049 82.7508 24.1809 80.9849 24.1046C79.249 24.1897 77.5569 23.5566 76.3253 22.3611C75.0937 21.1656 74.4371 19.5188 74.5173 17.8264C74.4389 16.1275 75.0932 14.474 76.3218 13.2665C77.5505 12.059 79.2413 11.4076 80.9849 11.4701C82.7713 11.4258 84.4941 12.1171 85.7308 13.3744L83.9555 14.9743Z" fill="black"/>
  <path d="M92.617 11.4609C96.1893 11.5183 99.0431 14.3774 99.004 17.8595C98.9649 21.3416 96.0475 24.1391 92.4749 24.1204C88.9023 24.1014 86.0161 21.2734 86.0156 17.7911C86.0154 16.094 86.7143 14.4679 87.9555 13.2777C89.1967 12.0875 90.8762 11.433 92.617 11.4609ZM92.617 21.9909C95.1149 21.9909 96.685 20.2518 96.685 17.7911C96.685 15.3303 95.1149 13.6 92.617 13.6C90.1192 13.6 88.5402 15.339 88.5402 17.7911C88.5402 20.2431 90.1103 21.9909 92.617 21.9909Z" fill="black"/>
  <path d="M101.092 11.765H103.438V13.6259C104.259 12.2022 105.842 11.3612 107.515 11.4607C109.915 11.4607 111.975 12.8607 111.975 16.0606V23.8169H109.629V16.7041C109.629 14.4345 108.3 13.5998 106.819 13.5998C104.856 13.5998 103.376 14.8171 103.376 17.6171V23.8169H101.092V11.765Z" fill="black"/>
  <path d="M116.346 18.6344C116.346 20.7387 118.353 22.1126 120.52 22.1126C121.879 22.0699 123.137 21.4022 123.91 20.3126L125.695 21.6344C124.398 23.2863 122.348 24.2073 120.217 24.0952C116.31 24.0952 113.857 21.3561 113.857 17.7648C113.787 16.0842 114.434 14.4505 115.644 13.2514C116.854 12.0522 118.519 11.3945 120.244 11.4343C124.606 11.4343 126.274 14.6865 126.274 17.7909V18.6083L116.346 18.6344ZM123.75 16.7996C123.696 14.7909 122.554 13.3213 120.182 13.3213C118.158 13.3035 116.473 14.831 116.346 16.7996H123.75Z" fill="black"/>
  <path fillRule="evenodd" clipRule="evenodd" d="M14.5397 0.492068C14.2945 0.200153 13.8757 0.125161 13.5443 0.313837L13.2344 0.49033L13.2303 0.489572L13.2297 0.493032L9.89647 2.39129L10.678 3.76361L12.8548 2.52392L12.3192 5.42555L13.8722 5.71221L14.4109 2.79391L16.0151 4.7034L17.2243 3.68754L14.7825 0.781036L14.7834 0.776238L14.7775 0.775164L14.5397 0.492068ZM9.84027 25C10.6433 25 11.2944 24.3654 11.2944 23.5826C11.2944 22.7998 10.6433 22.1652 9.84027 22.1652C9.03719 22.1652 8.38617 22.7998 8.38617 23.5826C8.38617 24.3654 9.03719 25 9.84027 25ZM11.7956 17.2218L11.2718 20.1425L9.71733 19.8637L10.2379 16.9611L8.06789 18.2071L7.28148 16.8376L10.602 14.9309L10.6027 14.9269L10.6075 14.9277L10.919 14.7488C11.2491 14.5593 11.6675 14.6322 11.914 14.9223L12.1544 15.2052L12.1572 15.2057L12.1568 15.208L14.6198 18.1065L13.4164 19.1291L11.7956 17.2218ZM13.0536 10.2489L12.5301 13.1679L10.9757 12.8892L11.494 9.9987L9.332 11.234L8.54856 9.86272L11.8574 7.97223L11.861 7.95207L11.8852 7.95639L12.187 7.78395C12.517 7.59538 12.9346 7.66873 13.1806 7.95848L13.4112 8.23005L13.4155 8.23083L13.4149 8.23437L15.8773 11.1345L14.6735 12.1566L13.0536 10.2489ZM2.86063 21.7738L2.85208 21.7796L2.84513 21.7694L2.52349 21.677C2.18272 21.5791 1.95714 21.2559 1.98284 20.9023L2.26911 16.9637L3.76413 17.0724L3.59001 19.4679L5.91857 17.8886L6.75995 19.1292L4.47608 20.6782L6.80662 21.3474L6.3929 22.7881L2.86063 21.7738ZM18.3083 23.4103L18.3084 23.4106L18.3081 23.4108L18.203 23.7567C18.1016 24.0901 17.7839 24.3096 17.4362 24.2866L17.1076 24.2647L17.0869 24.2794L17.075 24.2626L13.4144 24.0195L13.5137 22.5239L15.9534 22.6859L14.3626 20.4493L15.584 19.5805L17.2107 21.8673L17.9146 19.5518L19.3487 19.9878L18.3083 23.4103ZM22.5989 15.2818L22.6025 15.2824L22.6018 15.2869L22.7765 15.6C22.9553 15.9203 22.8824 16.3222 22.6027 16.5594L22.3384 16.7834L22.3366 16.7939L22.3279 16.7923L19.4839 19.2032L18.4915 18.0325L20.3625 16.4465L17.5601 15.9534L17.8261 14.4419L20.6499 14.9388L19.4657 12.8174L20.8057 12.0694L22.5989 15.2818ZM19.714 8.69335L17.1819 10.0558L16.4547 8.7044L18.9425 7.36576L16.6564 6.44106L17.2319 5.01839L20.6988 6.42072L20.7143 6.41234L20.7244 6.43111L21.0387 6.55824C21.3756 6.69451 21.5707 7.04842 21.5061 7.40604L21.4415 7.76367L21.4415 7.76376L21.4415 7.7638L20.7898 11.3697L19.2796 11.0968L19.714 8.69335ZM2.7428 11.8598L5.55123 12.3377L5.2938 13.8506L2.46186 13.3687L3.66945 15.4965L2.33476 16.254L0.508677 13.0363L0.506956 13.0361L0.507315 13.0339L0.332439 12.7258C0.151453 12.4069 0.22139 12.0045 0.499366 11.7654L0.761548 11.5398L0.764386 11.5232L0.778204 11.5255L3.58781 9.10849L4.58864 10.2719L2.7428 11.8598ZM6.98489 5.31603L8.85394 7.39821L7.71191 8.42334L5.79965 6.29303L5.35451 8.71913L3.84506 8.44217L4.50419 4.84984L4.50118 4.84649L4.50552 4.84259L4.57232 4.47852C4.63699 4.12601 4.93707 3.86523 5.29515 3.85033L5.62627 3.83656L5.64321 3.82135L5.65576 3.83534L9.40714 3.67931L9.47091 5.21263L6.98489 5.31603Z" fill="black"/>
</svg>