<svg xmlns="http://www.w3.org/2000/svg" width="107" height="24" viewBox="0 0 107 24" fill="none">
  <path fillRule="evenodd" clipRule="evenodd" d="M7.73226 11.7814C4.00758 18.2333 0.903146 23.6102 0.83357 23.7299L0.707031 23.9477H14.5052C22.0943 23.9477 28.3035 23.9353 28.3035 23.92C28.3035 23.877 14.5532 0.0540717 14.5273 0.0522462C14.5147 0.0513335 11.457 5.32945 7.73226 11.7814ZM28.4556 2.0801C34.0132 11.7299 38.7025 19.8256 38.7227 19.8051C38.7576 19.7696 49.006 2.00742 49.0346 1.93278C49.0533 1.88411 48.7575 1.87689 47.1187 1.88602L45.1807 1.89681L41.9592 7.48551C40.1874 10.5593 38.7267 13.0751 38.7132 13.076C38.6997 13.077 37.2341 10.5575 35.4564 7.47717L32.2241 1.87652L30.2811 1.87627L28.3381 1.87606L28.4556 2.0801ZM103.065 10.4848V19.0936H104.745H106.426V10.4848V1.87606H104.745H103.065V10.4848ZM52.2006 6.0886C50.5053 6.34554 49.1439 7.02208 48.0867 8.13301C47.2054 9.05911 46.6849 10.1415 46.4271 11.5843C46.3435 12.0524 46.3561 13.4508 46.4484 13.9491C46.889 16.3271 48.5905 18.2051 51.0491 19.027C52.2937 19.4431 53.8662 19.5698 55.2175 19.3629C56.4589 19.1728 57.689 18.6717 58.6795 17.9527C59.0799 17.662 59.901 16.861 59.8492 16.8115C59.8055 16.7697 57.1607 15.2415 57.0754 15.2087C57.0384 15.1945 56.9278 15.2629 56.7959 15.3816C55.1484 16.8637 52.3483 16.8299 50.7833 15.3089C50.4524 14.9873 50.0798 14.4359 49.9836 14.1256L49.9548 14.0324L55.1954 14.0219L60.436 14.0113L60.4895 13.6587C60.5708 13.1232 60.5304 11.805 60.4164 11.2731C59.8371 8.56926 57.9779 6.76826 55.1463 6.16809C54.6834 6.06997 54.5185 6.05657 53.6112 6.0435C52.8715 6.03288 52.4874 6.04516 52.2006 6.0886ZM78.1944 6.07242C75.4837 6.4198 73.3872 8.05045 72.595 10.4276C72.3104 11.2816 72.2626 11.6122 72.2625 12.7252C72.2623 13.6552 72.2699 13.7562 72.3766 14.2552C72.6339 15.4574 73.1584 16.485 73.9423 17.3225C75.3094 18.783 77.3477 19.542 79.6658 19.4539C81.6739 19.3776 83.3721 18.6828 84.5982 17.436C84.9223 17.1064 85.3918 16.51 85.4532 16.3499C85.4719 16.3013 85.1433 16.0929 84.066 15.4703C83.2895 15.0215 82.6472 14.6544 82.6387 14.6544C82.6301 14.6544 82.5521 14.7617 82.4651 14.893C82.2123 15.2745 82.0297 15.4749 81.7194 15.7111C81.1205 16.1671 80.422 16.414 79.59 16.4638C77.9791 16.5603 76.6352 15.859 76.0133 14.5973C75.7292 14.021 75.6388 13.6457 75.6122 12.9326C75.5502 11.2707 76.2293 10.0099 77.5219 9.38736C78.1277 9.09558 78.451 9.03276 79.3339 9.03525C79.9934 9.03712 80.1481 9.05036 80.4333 9.1291C81.3164 9.37301 82.0394 9.89165 82.4709 10.5908L82.6238 10.8384L82.7551 10.761C82.8272 10.7184 83.4639 10.3512 84.1698 9.94501C84.8758 9.53884 85.4594 9.20183 85.4668 9.1961C85.4978 9.17204 85.3375 8.92149 85.0681 8.57287C84.0338 7.23467 82.4261 6.35242 80.5432 6.08976C80.0319 6.01849 78.6926 6.00857 78.1944 6.07242ZM92.5908 6.07242C92.4319 6.09275 92.088 6.15739 91.8265 6.21605C89.0248 6.84443 87.1062 8.86225 86.6983 11.6097C86.6238 12.1114 86.6122 13.1966 86.6764 13.6589C87.0134 16.086 88.6301 18.027 91.075 18.9399C91.913 19.2528 92.7564 19.4133 93.7717 19.4531C95.7047 19.5289 97.5929 18.9763 98.9858 17.927C99.3026 17.6884 100.12 16.8987 100.118 16.8333C100.117 16.8 97.6865 15.3682 97.3795 15.22C97.3212 15.1919 97.2391 15.2395 97.0041 15.4373C96.8386 15.5766 96.5771 15.7655 96.423 15.8571C94.9772 16.716 92.9545 16.6637 91.5678 15.7315C91.0369 15.3746 90.3615 14.5535 90.2637 14.1462L90.2362 14.0321H95.4649H100.694L100.717 13.918C100.938 12.8318 100.808 11.364 100.39 10.2359C100.063 9.35467 99.6428 8.7021 98.9577 8.01456C97.9054 6.95836 96.5657 6.31658 94.9395 6.08976C94.4282 6.01849 93.089 6.00857 92.5908 6.07242ZM62.7801 12.746V19.0936H64.4796H66.1792L66.1914 15.9302L66.2036 12.7667L66.3177 12.4017C66.7503 11.0183 67.7568 10.1284 69.1683 9.88169C69.5633 9.81266 70.2978 9.82353 70.6836 9.90418C70.8661 9.94231 71.0342 9.97658 71.057 9.98027C71.084 9.98463 71.1022 9.35969 71.1093 8.19263L71.1201 6.39827H70.7711C70.0182 6.39827 68.9925 6.65176 68.2358 7.02478C67.2495 7.51102 66.5018 8.31797 66.2598 9.15723C66.1884 9.40487 66.188 9.39848 66.1851 7.90221L66.1821 6.39827H64.4811H62.7801V12.746ZM54.2771 9.07712C54.718 9.16076 55.2038 9.33874 55.5269 9.53498C55.8722 9.74478 56.3106 10.1663 56.536 10.5054C56.6905 10.7378 56.9718 11.3122 56.9718 11.3953C56.9718 11.408 55.3848 11.4183 53.4453 11.4183C51.5057 11.4183 49.9188 11.4122 49.9188 11.4047C49.9188 11.3973 49.9646 11.2783 50.0206 11.1404C50.3727 10.2741 51.0266 9.63214 51.9276 9.26821C52.5364 9.02231 53.5525 8.93966 54.2771 9.07712ZM94.8297 9.13188C95.9608 9.43487 96.8284 10.2147 97.1971 11.2598L97.253 11.4183H93.7256H90.1982L90.2254 11.325C90.2823 11.1294 90.4935 10.7094 90.6532 10.4744C90.8571 10.174 91.3568 9.70359 91.6731 9.51407C91.9383 9.35517 92.5979 9.11769 92.942 9.05716C93.3442 8.98646 94.4502 9.03023 94.8297 9.13188Z" fill="black"/>
</svg>